<svg width="4" height="17" viewBox="0 0 4 17" fill="none" xmlns="http://www.w3.org/2000/svg">
<path d="M2 12.7209C2.53043 12.7209 3.03914 12.9316 3.41421 13.3067C3.78929 13.6818 4 14.1905 4 14.7209C4 15.2514 3.78929 15.7601 3.41421 16.1351C3.03914 16.5102 2.53043 16.7209 2 16.7209C1.46957 16.7209 0.96086 16.5102 0.585787 16.1351C0.210714 15.7601 0 15.2514 0 14.7209C0 14.1905 0.210714 13.6818 0.585787 13.3067C0.96086 12.9316 1.46957 12.7209 2 12.7209ZM2 6.72093C2.53043 6.72093 3.03914 6.93165 3.41421 7.30672C3.78929 7.68179 4 8.1905 4 8.72093C4 9.25136 3.78929 9.76007 3.41421 10.1351C3.03914 10.5102 2.53043 10.7209 2 10.7209C1.46957 10.7209 0.96086 10.5102 0.585787 10.1351C0.210714 9.76007 0 9.25136 0 8.72093C0 8.1905 0.210714 7.68179 0.585787 7.30672C0.96086 6.93165 1.46957 6.72093 2 6.72093ZM2 0.720932C2.53043 0.720932 3.03914 0.931646 3.41421 1.30672C3.78929 1.68179 4 2.1905 4 2.72093C4 3.25136 3.78929 3.76007 3.41421 4.13515C3.03914 4.51022 2.53043 4.72093 2 4.72093C1.46957 4.72093 0.96086 4.51022 0.585787 4.13515C0.210714 3.76007 0 3.25136 0 2.72093C0 2.1905 0.210714 1.68179 0.585787 1.30672C0.96086 0.931646 1.46957 0.720932 2 0.720932Z" fill="white"/>
</svg>
